<?xml version="1.0" standalone="no"?>
<!DOCTYPE svg PUBLIC "-//W3C//DTD SVG 20010904//EN"
 "http://www.w3.org/TR/2001/REC-SVG-20010904/DTD/svg10.dtd">
<svg version="1.0" xmlns="http://www.w3.org/2000/svg"
 width="512.000000pt" height="510.000000pt" viewBox="0 0 512.000000 510.000000"
 preserveAspectRatio="xMidYMid meet">
<metadata>
Created by potrace 1.15, written by Peter Selinger 2001-2017
</metadata>
<g transform="translate(0.000000,510.000000) scale(0.100000,-0.100000)"
fill="#000000" stroke="none">
<path d="M982 5089 c-143 -18 -269 -81 -375 -186 -73 -73 -118 -144 -155 -245
l-27 -73 -5 -835 c-4 -609 -8 -840 -17 -855 -32 -56 -97 -95 -157 -95 -128 0
-246 -120 -246 -250 0 -130 118 -250 246 -250 71 0 146 -55 164 -120 6 -21 10
-338 10 -825 0 -660 3 -800 15 -852 66 -282 323 -491 605 -495 96 -1 147 20
203 82 89 99 90 228 4 326 -49 56 -83 74 -164 85 -132 19 -163 56 -163 196 0
81 -3 95 -22 117 -33 36 -68 42 -101 16 -26 -21 -27 -24 -27 -129 0 -126 15
-180 66 -240 50 -58 111 -90 200 -106 96 -16 119 -36 119 -101 0 -66 -34 -94
-114 -94 -150 0 -305 88 -393 224 -76 118 -72 64 -78 996 l-5 835 -25 50 c-51
104 -142 167 -264 184 -87 13 -121 40 -121 101 0 61 34 88 121 101 122 17 200
69 255 171 l34 63 5 835 c6 932 2 878 78 996 88 136 243 224 393 224 80 0 114
-28 114 -94 0 -64 -24 -85 -117 -101 -92 -16 -143 -41 -192 -95 -75 -84 -70
-21 -76 -945 l-5 -830 -26 -72 c-15 -40 -49 -102 -75 -139 -73 -98 -78 -109
-62 -138 7 -13 35 -54 62 -90 26 -37 60 -99 75 -139 l26 -72 5 -596 c4 -485 8
-599 19 -612 8 -11 28 -17 51 -17 30 0 43 6 60 27 21 27 21 28 17 622 -3 534
-5 602 -21 655 -20 69 -67 167 -103 214 l-24 32 24 33 c36 46 83 144 103 213
16 54 18 132 23 884 6 766 7 828 24 853 22 34 60 53 122 62 85 11 131 33 178
85 46 51 67 103 67 165 0 62 -21 114 -67 165 -64 71 -141 95 -261 79z"/>
<path d="M4013 5089 c-60 -11 -95 -32 -140 -83 -86 -98 -85 -227 4 -326 47
-52 93 -74 178 -85 62 -9 100 -28 122 -62 17 -25 18 -87 24 -853 5 -752 7
-830 23 -884 20 -69 67 -167 103 -213 l24 -33 -24 -32 c-36 -47 -83 -145 -103
-214 -16 -54 -18 -132 -23 -884 -6 -766 -7 -828 -24 -853 -24 -36 -64 -55
-140 -66 -81 -11 -115 -29 -164 -85 -86 -98 -85 -227 4 -326 56 -62 107 -83
203 -82 281 4 539 214 605 493 12 54 15 185 15 854 0 487 4 804 10 825 18 65
93 120 164 120 128 0 246 120 246 250 0 130 -118 250 -246 250 -71 0 -146 55
-164 120 -6 20 -10 216 -10 471 l0 436 -23 21 c-31 29 -72 28 -103 -3 l-25
-25 3 -463 3 -462 33 -67 c52 -105 134 -162 257 -177 59 -7 72 -12 97 -40 37
-41 37 -81 0 -122 -25 -28 -38 -33 -97 -40 -123 -15 -205 -72 -257 -177 l-33
-67 -5 -835 c-5 -828 -5 -835 -27 -888 -79 -194 -256 -322 -444 -322 -80 0
-114 28 -114 94 0 65 23 85 119 101 86 15 148 47 194 100 72 81 66 9 72 935 5
728 8 841 22 880 30 85 47 117 103 190 30 41 55 81 55 90 0 9 -25 49 -55 90
-56 73 -73 105 -103 190 -14 39 -17 152 -22 880 l-5 835 -27 46 c-53 89 -121
134 -236 154 -94 16 -117 37 -117 101 0 66 34 94 114 94 117 0 236 -52 326
-144 124 -126 145 -198 145 -502 0 -209 1 -223 21 -248 26 -33 79 -36 109 -6
19 19 20 33 20 258 0 176 -4 253 -15 301 -43 180 -174 345 -340 426 -110 54
-246 80 -332 64z"/>
<path d="M1340 4467 c-47 -24 -50 -41 -50 -363 0 -310 5 -355 40 -374 30 -16
68 -12 90 10 19 19 20 33 20 358 0 310 -1 340 -17 354 -27 24 -55 29 -83 15z"/>
<path d="M1760 4473 c-8 -3 -23 -12 -32 -21 -17 -14 -18 -44 -18 -354 0 -325
1 -339 20 -358 43 -43 113 -14 125 52 3 18 5 169 3 335 -3 287 -4 303 -23 322
-23 22 -53 32 -75 24z"/>
<path d="M2170 4473 c-8 -3 -23 -12 -32 -21 -17 -14 -18 -44 -18 -354 0 -325
1 -339 20 -358 43 -43 113 -14 125 52 3 18 5 169 3 335 -3 287 -4 303 -23 322
-23 22 -53 32 -75 24z"/>
<path d="M2738 4466 c-90 -24 -165 -92 -194 -173 -9 -26 -13 -90 -13 -198 -1
-147 1 -164 23 -210 27 -58 74 -108 131 -138 57 -31 183 -31 241 0 66 35 101
70 131 131 27 56 28 61 28 222 -1 187 -7 210 -76 285 -67 73 -180 107 -271 81z
m139 -162 c48 -30 58 -60 61 -190 3 -104 1 -128 -16 -166 -41 -93 -156 -104
-221 -22 -19 24 -21 40 -21 166 0 102 4 146 14 167 34 65 119 86 183 45z"/>
<path d="M3558 4466 c-59 -16 -119 -55 -152 -99 -47 -61 -56 -106 -56 -276 0
-177 11 -214 78 -284 54 -56 105 -79 187 -84 64 -4 76 -2 135 29 128 66 165
151 158 372 -5 160 -14 190 -78 260 -71 77 -176 109 -272 82z m142 -165 c48
-33 60 -75 60 -206 0 -138 -14 -178 -71 -207 -46 -24 -89 -22 -130 5 -52 35
-59 57 -59 205 0 157 9 183 73 213 47 21 87 18 127 -10z"/>
<path d="M1314 3419 c-18 -20 -19 -41 -19 -356 l0 -335 24 -19 c30 -25 76 -24
101 1 19 19 20 33 20 358 0 316 -1 340 -18 355 -27 24 -85 22 -108 -4z"/>
<path d="M1727 3422 c-15 -17 -17 -56 -17 -355 0 -324 1 -338 20 -357 43 -43
113 -14 125 52 3 18 5 169 3 334 -3 280 -4 303 -22 323 -25 27 -86 29 -109 3z"/>
<path d="M2284 3421 c-59 -27 -109 -75 -138 -133 -25 -49 -26 -60 -26 -214 0
-179 8 -219 60 -284 44 -56 137 -100 210 -100 116 0 207 56 257 158 27 55 28
62 28 217 0 147 -2 164 -24 212 -26 60 -83 116 -145 144 -55 25 -166 25 -222
0z m175 -145 c57 -30 66 -57 66 -206 0 -110 -3 -141 -18 -167 -45 -83 -173
-84 -221 -3 -22 39 -23 287 -1 330 29 55 113 77 174 46z"/>
<path d="M2960 3420 c-19 -19 -20 -33 -20 -355 0 -322 1 -336 20 -355 25 -25
71 -26 101 -1 l24 19 0 335 c0 315 -1 336 -19 356 -25 27 -79 28 -106 1z"/>
<path d="M3370 3420 c-19 -19 -20 -33 -20 -355 0 -322 1 -336 20 -355 30 -30
83 -27 109 6 20 26 21 38 21 349 0 311 -1 323 -21 349 -26 33 -79 36 -109 6z"/>
<path d="M3780 3420 c-19 -19 -20 -33 -20 -355 0 -322 1 -336 20 -355 30 -30
83 -27 109 6 20 26 21 38 21 349 0 311 -1 323 -21 349 -26 33 -79 36 -109 6z"/>
<path d="M1319 2391 l-24 -19 0 -335 c0 -315 1 -336 19 -356 25 -27 86 -29
109 -3 15 17 17 56 17 355 0 324 -1 338 -20 357 -25 25 -71 26 -101 1z"/>
<path d="M1894 2398 c-56 -18 -126 -80 -156 -137 -28 -52 -28 -56 -28 -225 0
-165 1 -174 26 -224 49 -99 135 -151 250 -152 117 0 207 59 258 169 19 41 21
64 21 206 0 155 -1 162 -28 217 -33 67 -91 121 -155 142 -51 18 -140 19 -188
4z m156 -153 c54 -28 65 -64 65 -215 0 -116 -3 -139 -19 -163 -52 -77 -180
-75 -221 3 -22 43 -21 291 1 329 34 58 112 78 174 46z"/>
<path d="M2550 2390 c-19 -19 -20 -33 -20 -355 0 -322 1 -336 20 -355 27 -27
81 -26 106 1 18 20 19 41 19 356 l0 335 -24 19 c-30 25 -76 24 -101 -1z"/>
<path d="M2960 2390 c-19 -19 -20 -33 -20 -355 0 -322 1 -336 20 -355 27 -27
81 -26 106 1 18 20 19 41 19 356 l0 335 -24 19 c-30 25 -76 24 -101 -1z"/>
<path d="M3515 2387 c-65 -31 -112 -79 -142 -144 -23 -50 -24 -61 -21 -220 3
-192 11 -217 85 -290 108 -104 294 -97 395 15 67 74 72 96 73 287 0 165 -1
171 -27 221 -51 97 -127 146 -238 151 -64 3 -83 0 -125 -20z m183 -147 c50
-30 62 -71 62 -205 0 -128 -11 -169 -55 -203 -34 -27 -104 -29 -145 -6 -52 32
-60 58 -60 214 l0 142 39 39 c33 33 45 39 82 39 26 0 57 -8 77 -20z"/>
<path d="M1489 1367 c-85 -32 -141 -84 -177 -165 -13 -29 -16 -70 -17 -197 0
-146 2 -164 23 -211 101 -222 415 -222 513 0 21 45 23 68 24 196 0 165 -10
213 -59 280 -64 88 -209 134 -307 97z m177 -180 c39 -42 49 -103 42 -238 -5
-76 -9 -94 -32 -123 -66 -88 -202 -57 -227 51 -12 51 -11 210 1 252 10 38 44
78 75 92 11 5 40 7 65 5 35 -3 51 -11 76 -39z"/>
<path d="M2140 1360 c-19 -19 -20 -33 -20 -358 0 -327 1 -340 20 -357 28 -25
76 -23 103 4 22 21 22 28 25 324 2 166 0 317 -3 335 -12 66 -82 95 -125 52z"/>
<path d="M2730 1371 c-80 -26 -142 -82 -177 -159 -24 -50 -25 -60 -21 -225 3
-166 4 -173 30 -218 116 -198 387 -189 496 16 26 48 27 56 27 215 0 160 -1
167 -28 222 -47 95 -129 149 -237 154 -36 2 -76 0 -90 -5z m137 -158 c59 -28
76 -80 71 -227 -3 -131 -12 -159 -64 -193 -34 -22 -102 -21 -137 2 -49 32 -57
61 -57 212 0 152 5 168 64 204 38 23 77 24 123 2z"/>
<path d="M3372 1357 c-22 -23 -22 -28 -22 -354 0 -307 1 -332 18 -354 27 -33
78 -30 109 5 l24 28 -3 330 -3 330 -24 19 c-32 26 -73 24 -99 -4z"/>
<path d="M3782 1357 c-22 -23 -22 -28 -22 -354 0 -300 2 -333 18 -351 9 -12
29 -24 44 -28 22 -5 33 0 58 24 l30 30 0 327 0 326 -25 24 c-31 32 -74 33
-103 2z"/>
</g>
</svg>
